<?xml version="1.0" encoding="utf-8"?>
<!-- Generator: Adobe Illustrator 17.1.0, SVG Export Plug-In . SVG Version: 6.00 Build 0)  -->
<!DOCTYPE svg PUBLIC "-//W3C//DTD SVG 1.1//EN" "http://www.w3.org/Graphics/SVG/1.1/DTD/svg11.dtd">
<svg version="1.1" id="Layer_1" xmlns="http://www.w3.org/2000/svg" xmlns:xlink="http://www.w3.org/1999/xlink" x="0px" y="0px"
	 viewBox="266 223 216 215" enable-background="new 266 223 216 215" xml:space="preserve">
<g>
	<path fill="#003D76" d="M422.8,427.7c-10.9,2-23.4,3.4-34.6,1.1c-7.7-1.4-14.8-4.6-20.2-10.5c-8-8.9-10.7-21.8-12.1-33.2
		c-0.9-7.3-1.4-14.8-1.6-22.1c-0.5-8.2-0.7-16.2-1.4-24.3c-1.1-17.5-3.4-35-8.6-51.6c-5.9-18.7-15.5-35-29.1-49.1l-0.5-0.5l0.9-0.9
		l0.5,0.5c13.9,14.1,23.4,30.7,29.3,49.6c5.5,16.8,7.5,34.4,8.6,52.1c0.5,8.2,0.9,16.4,1.4,24.3c0.5,7.3,0.7,14.8,1.6,22.1
		c1.4,11.1,3.9,23.9,11.8,32.5c5.2,5.7,12.1,8.9,19.6,10.2c10.9,2,23.2,0.7,34.1-1.1h0.7l0.2,1.1L422.8,427.7z"/>
	<path fill="#003D76" d="M333.3,259.8c18,10,32.3,23.2,35,44.4c1.8,14.6-1.8,30-4.1,44.4c-2.7,16.6-3.6,32.5,4.1,48l0.2,0.5
		l-0.7,0.5l-0.2-0.5c-4.1-8.4-5.9-17.3-6.1-26.6c0-7.3,0.7-14.8,2-22.1c2.3-14.3,5.9-29.8,4.1-44.1c-1.1-8.4-4.1-15.9-9.1-22.8
		c-6.6-8.9-15.9-15.7-25.7-21.2l-0.5-0.2l0.5-0.7L333.3,259.8z"/>
	<path fill="#003D76" d="M316.3,237.5c-5,14.8-5.9,30,3.9,43.2c6.4,8.6,15.9,14.6,25,19.6c8,4.3,16.6,8.2,24.3,13
		c6.4,3.9,13,8.9,16.2,15.7c1.6,3.4,2,6.8,1.6,10.7v0.5h-1.1v-0.5c0.2-3.4-0.2-6.8-1.6-10c-3-6.6-9.6-11.6-15.7-15.2
		c-7.7-4.8-16.2-8.6-24.3-13c-9.3-5.2-18.9-11.4-25.5-20c-9.8-13.4-9.1-28.9-3.9-44.1l0.2-0.5l0.9,0.2V237.5z"/>
	<path fill="#003D76" d="M322.2,426.5c4.3,0.5,8.9,0.2,13.2-0.9c14.1-3.9,24.6-16.8,32.1-28.7c5-8,9.3-16.4,13.4-24.8
		c4.3-9.6,8.4-19.1,12.3-28.9c1.8-4.6,3.4-9.1,5-13.9c1.8-5.2,3.4-10.5,5-15.7c3.9-11.1,8-22.5,13.4-33c12.5-24.1,30-41.4,57.1-47.8
		l0.7-0.2l0.2,1.1l-0.7,0.2c-26.6,6.4-43.9,23.4-56.2,47.1c-5.5,10.5-9.6,21.6-13.2,32.8c-1.8,5.2-3.4,10.5-5,15.7
		c-1.6,4.8-3.2,9.3-5,13.9c-3.9,9.8-8,19.3-12.3,28.9c-4.1,8.6-8.4,17.1-13.4,25c-7.7,12.1-18.4,25.3-32.8,29.1
		c-4.6,1.1-9.1,1.6-13.7,0.9h-0.7l0.2-1.1L322.2,426.5z"/>
	<path fill="#003D76" d="M407.1,232.5c2,0.2,4.1,0.5,5.9,1.1c10.9,3,22.5,11.8,24.3,23.7c0.2,1.4,0.2,2.7,0.2,4.1
		c-0.5,8.9-8.4,20.9-13.4,28.2c-4.1,5.9-8.4,11.6-12.7,17.5c-4.8,6.1-9.3,12.5-14.1,18.7c-4.6,6.1-8.9,12.3-13,18.7
		c-3.9,5.9-7.3,12.1-10.5,18.4c-4.6,10-8.6,22.3-5.5,33.2c2.3,8.4,8.2,14.3,15.5,18.7c11.1,6.6,25.9,10,38.7,11.8h0.7l-0.2,1.1h-0.7
		c-19.1-2.7-49.1-9.6-55.3-31.4c-3.2-11.4,0.7-23.9,5.5-34.1c3-6.4,6.6-12.7,10.5-18.7c4.1-6.4,8.4-12.7,13-18.9
		c4.6-6.4,9.3-12.5,14.1-18.7c4.3-5.7,8.6-11.4,12.7-17.3c4.8-7.1,12.7-18.9,13.2-27.5c0-1.4,0-2.5-0.2-3.9
		c-1.8-11.4-13-19.8-23.4-22.5c-1.8-0.5-3.9-0.9-5.7-0.9v-1.4H407.1z"/>
	<path fill="#003D76" d="M436.6,234.5c2.5,1.6,4.8,3.9,5.7,6.8c1.4,4.1,0,8.6-1.8,12.5c-2.5,5.5-6.4,10.9-9.8,15.9
		c-4.6,6.4-9.6,12.7-14.3,19.1c-5.5,7.3-10.5,14.6-15.2,22.3c-10,16.4-17.7,34.1-19.6,53.5c-2,23.4,5.2,44.8,18,64.2l0.2,0.5
		l-0.7,0.5l-0.2-0.5c-13-19.6-20.2-41.2-18.2-64.6c1.8-19.3,9.6-37.3,19.8-53.7c4.8-7.7,10-15,15.2-22.3c4.8-6.4,9.6-12.7,14.3-19.1
		c3.4-4.8,7.3-10.2,9.8-15.7c1.6-3.6,3-8,1.8-12.1c-0.9-2.7-3-4.8-5.5-6.4l-0.5-0.2l0.5-0.7L436.6,234.5z"/>
	<path fill="#003D76" d="M422.8,423.1c2.3,0,3.9,1.8,3.9,3.9c0,2.3-1.8,3.9-3.9,3.9c-2.3,0-3.9-1.8-3.9-3.9
		C418.7,424.7,420.5,423.1,422.8,423.1"/>
	<path fill="#003D76" d="M399.3,425.9c1.6,0,3,1.4,3,3c0,1.6-1.4,3-3,3c-1.6,0-3-1.4-3-3C396.1,427.2,397.5,425.9,399.3,425.9"/>
	<path fill="#003D76" d="M386.6,334.9c2.7,0,5,2.3,5,5s-2.3,5-5,5s-4.8-2.3-4.8-5C381.8,336.9,383.8,334.9,386.6,334.9"/>
	<path fill="#003D76" d="M402.3,314.6c1.6,0,3.2,1.4,3.2,3.2c0,1.6-1.4,3.2-3.2,3.2c-1.6,0-3.2-1.4-3.2-3.2
		C399.3,316,400.7,314.6,402.3,314.6"/>
	<path fill="#003D76" d="M368.2,391.7c3.2,0,5.7,2.5,5.7,5.7s-2.5,5.7-5.7,5.7s-5.7-2.5-5.7-5.7
		C362.7,394.2,365.2,391.7,368.2,391.7"/>
	<path fill="#003D76" d="M436.9,257.3c1.1,0,2.3,0.9,2.3,2.3c0,1.1-0.9,2.3-2.3,2.3c-1.1,0-2.3-0.9-2.3-2.3
		C434.6,258.4,435.7,257.3,436.9,257.3"/>
	<path fill="#003D76" d="M441.9,245.7c1.8,0,3.4,1.6,3.4,3.4s-1.6,3.4-3.4,3.4s-3.4-1.6-3.4-3.4S440,245.7,441.9,245.7"/>
	<path fill="#003D76" d="M436,251.6c1.4,0,2.5,1.1,2.5,2.5s-1.1,2.5-2.5,2.5s-2.5-1.1-2.5-2.5S434.6,251.6,436,251.6"/>
	<path fill="#003D76" d="M409.6,292.8c2.5,0,4.8,2,4.8,4.8c0,2.5-2,4.8-4.8,4.8c-2.5,0-4.8-2-4.8-4.8S407.1,292.8,409.6,292.8"/>
	<path fill="#003D76" d="M274.9,232.2c29.1,8.2,54.1,31.2,71.7,55.1c14.6,19.8,26.8,44.1,32.1,68.5c2.3,10.2,3.4,21.2,2,31.6
		c-1.1,8.9-3.9,17.7-9.6,24.8c-5,6.1-11.4,10.5-19.1,13c-9.6,3.2-20,3.4-30,2.5h-0.5v-0.9h0.5c9.8,0.9,20.2,0.7,29.6-2.5
		c7.3-2.5,13.7-6.6,18.7-12.7c5.7-7.1,8.4-15.7,9.6-24.6c1.1-10.5,0.2-21.2-2-31.4c-5.2-24.1-17.3-48.2-31.9-68
		c-17.3-23.7-42.3-46.6-71.2-54.6h-0.5l0.2-0.7L274.9,232.2z"/>
	<path fill="#003D76" d="M360,232.7c-13.9,8-26.2,19.3-28.2,35.9c-1.4,10.9,2,22.1,6.4,32.1c5.2,11.6,12.3,22.8,19.3,33.4
		c4.1,6.4,8.2,12.5,12.3,18.9c3.9,5.9,7.5,12.1,10.7,18.2c5,10,9.8,22.3,7.3,33.7c-2.3,10.7-9.8,18-18.9,23.2l-0.5,0.2l-0.7-1.1
		l0.5-0.2c8.6-5.2,16.2-12.3,18.2-22.5c2.3-11.1-2.3-23-7.3-32.8c-3.2-6.1-6.8-12.3-10.5-18.2c-4.1-6.4-8.2-12.5-12.3-18.9
		c-7.1-10.7-14.1-21.8-19.3-33.7c-4.6-10.2-8-21.6-6.6-32.8c2-17.1,14.8-28.7,28.9-36.9l0.5-0.2l0.7,1.1L360,232.7z"/>
	<path fill="#003D76" d="M333.1,256.1c2,0,3.9,1.8,3.9,3.9c0,2-1.8,3.9-3.9,3.9c-2,0-3.9-1.8-3.9-3.9
		C329.2,258,331.1,256.1,333.1,256.1"/>
	<path fill="#003D76" d="M331.1,266.1c1.8,0,3.2,1.4,3.2,3.2s-1.4,3.2-3.2,3.2c-1.8,0-3.2-1.4-3.2-3.2S329.2,266.1,331.1,266.1"/>
	<path fill="#003D76" d="M344.5,278.2c3.6,0,6.6,3,6.6,6.6s-3,6.6-6.6,6.6s-6.6-3-6.6-6.6C337.7,281.2,340.6,278.2,344.5,278.2"/>
	<path fill="#003D76" d="M352.9,320.8c4.6,0,8.2,3.6,8.2,8.2s-3.6,8.2-8.2,8.2s-8.2-3.6-8.2-8.2S348.4,320.8,352.9,320.8"/>
	<path fill="#003D76" d="M374.1,357.8c1.8,0,3.4,1.6,3.4,3.4s-1.6,3.4-3.4,3.4s-3.4-1.4-3.4-3.4
		C370.7,359.4,372.2,357.8,374.1,357.8"/>
	<path fill="#003D76" d="M377.7,351.7c1.4,0,2.3,1.1,2.3,2.3c0,1.4-1.1,2.3-2.3,2.3c-1.4,0-2.3-1.1-2.3-2.3
		C375.4,352.8,376.6,351.7,377.7,351.7"/>
	<path fill="#003D76" d="M375,420.2c1.8,0,3.2,1.4,3.2,3.2s-1.4,3.2-3.2,3.2s-3.2-1.4-3.2-3.2C371.8,421.5,373.4,420.2,375,420.2"/>
	<path fill="#003D76" d="M373.8,404.2c1.6,0,2.7,1.4,2.7,2.7c0,1.6-1.4,2.7-2.7,2.7c-1.6,0-2.7-1.4-2.7-2.7
		C371.1,405.6,372.2,404.2,373.8,404.2"/>
	<path fill="#003D76" d="M367,412.4c1.8,0,3.4,1.6,3.4,3.4s-1.6,3.4-3.4,3.4s-3.4-1.6-3.4-3.4C363.4,414,365,412.4,367,412.4"/>
	<path fill="#003D76" d="M361.6,403.8c1.4,0,2.5,1.1,2.5,2.5s-1.1,2.5-2.5,2.5s-2.5-1.1-2.5-2.5S360.2,403.8,361.6,403.8"/>
	<path fill="#003D76" d="M335.2,290.3c2.5,0,4.8,2,4.8,4.8c0,2.5-2,4.8-4.8,4.8c-2.5,0-4.8-2-4.8-4.8
		C330.4,292.5,332.7,290.3,335.2,290.3"/>
	<path fill="#003D76" d="M359.7,303.9c2.5,0,4.8,2,4.8,4.8c0,2.5-2,4.8-4.8,4.8c-2.5,0-4.8-2-4.8-4.8
		C355.2,306,357.2,303.9,359.7,303.9"/>
	<path fill="#003D76" d="M367.9,321.7c1.6,0,3,1.4,3,3c0,1.6-1.4,3-3,3c-1.6,0-3-1.4-3-3C365,323,366.1,321.7,367.9,321.7"/>
	<path fill="#003D76" d="M368.6,310.5c1.8,0,3.2,1.4,3.2,3.2s-1.4,3.2-3.2,3.2s-3.2-1.4-3.2-3.2S366.8,310.5,368.6,310.5"/>
	<path fill="#003D76" d="M364.5,340.3c3.2,0,5.7,2.5,5.7,5.7s-2.5,5.7-5.7,5.7s-5.7-2.5-5.7-5.7S361.3,340.3,364.5,340.3"/>
	<path fill="#003D76" d="M380.7,365.8c4.3,0,7.7,3.4,7.7,7.7c0,4.3-3.4,7.7-7.7,7.7c-4.3,0-7.7-3.4-7.7-7.7
		C372.9,369.4,376.3,365.8,380.7,365.8"/>
	<path fill="#003D76" d="M349.3,300.3c1.6,0,3,1.4,3,3c0,1.6-1.4,3-3,3c-1.6,0-3-1.4-3-3C346.5,301.6,347.7,300.3,349.3,300.3"/>
	<path fill="#003D76" d="M383.2,409.7c2.7,0,5,2.3,5,5s-2.3,5-5,5s-5-2.3-5-5C378.2,412,380.4,409.7,383.2,409.7"/>
	<path fill="#003D76" d="M387.3,402c1.6,0,2.7,1.4,2.7,2.7c0,1.6-1.1,2.7-2.7,2.7s-2.7-1.4-2.7-2.7C384.3,403.3,385.7,402,387.3,402
		"/>
	<path fill="#003D76" d="M393.6,417.7c1.4,0,2.5,1.1,2.5,2.5s-1.1,2.5-2.5,2.5s-2.5-1.1-2.5-2.5
		C390.9,418.8,392.3,417.7,393.6,417.7"/>
	<path fill="#003D76" d="M322.2,426.3c7.5,3.2,17.5,4.3,25.7,4.1c6.8,0,14.1-0.9,20.5-3.4l0.5-0.2l0.5,0.9l-0.5,0.2
		c-6.4,2.3-13.9,3.2-20.9,3.4c-8.2,0-18.4-0.9-25.9-4.3l-0.5-0.2l0.5-0.9L322.2,426.3z"/>
	<path fill="#003D76" d="M406.8,231.6c9.8-2,20.7,0,30.5,1.6c11.8,1.8,23,3.2,34.8,0.2l0.5-0.2l0.2,0.9l-0.5,0.2
		c-11.8,3-23.2,1.6-35.3-0.2c-5.2-0.9-10.5-1.8-15.9-2.3c-4.8-0.5-9.8-0.5-14.3,0.7V231.6z"/>
	<path fill="#003D76" d="M276,232.5c10.7,3.2,21.8,5.2,33,4.6c3.9-0.2,7.7-0.9,11.6-1.6c3.4-0.7,6.8-1.6,10.5-2.5
		c4.3-1.1,8.6-1.8,13-2.3c5.2-0.5,10.5,0,15.9,0.9h0.5l-0.2,0.9h-0.5c-5.2-0.9-10.2-1.4-15.5-0.9c-4.3,0.2-8.6,1.1-12.7,2.3
		c-3.4,0.9-6.8,1.8-10.5,2.5c-3.9,0.9-7.7,1.4-11.8,1.6c-11.4,0.7-22.5-1.6-33.2-4.8l-0.5-0.2l0.2-0.9L276,232.5z"/>
	<path fill="#003D76" d="M315.6,230.2c3.9,0,7.1,3.2,7.1,7.1c0,3.9-3.2,7.1-7.1,7.1c-3.9,0-7.1-3.2-7.1-7.1
		C308.5,233.4,311.7,230.2,315.6,230.2"/>
	<path fill="#003D76" d="M275.8,228.6c2.5,0,4.3,2,4.3,4.3c0,2.5-2,4.3-4.3,4.3c-2.5,0-4.3-2-4.3-4.3
		C271.5,230.4,273.3,228.6,275.8,228.6"/>
	<path fill="#003D76" d="M359.7,228.4c2,0,3.6,1.6,3.6,3.6s-1.6,3.6-3.6,3.6s-3.6-1.6-3.6-3.6C355.9,230.2,357.7,228.4,359.7,228.4"
		/>
	<path fill="#003D76" d="M407.1,229.3c2,0,3.9,1.6,3.9,3.9c0,2-1.6,3.9-3.9,3.9c-2,0-3.9-1.6-3.9-3.9
		C403.4,230.9,405,229.3,407.1,229.3"/>
	<path fill="#003D76" d="M436.4,229.1c3.2,0,5.7,2.5,5.7,5.7s-2.5,5.7-5.7,5.7s-5.7-2.5-5.7-5.7
		C430.7,231.6,433.2,229.1,436.4,229.1"/>
	<path fill="#003D76" d="M472.4,230.2c2,0,3.9,1.6,3.9,3.9c0,2-1.6,3.9-3.9,3.9c-2,0-3.9-1.6-3.9-3.9
		C468.5,232,470.3,230.2,472.4,230.2"/>
	<path fill="#003D76" d="M322,423.4c2,0,3.9,1.6,3.9,3.9s-1.6,3.9-3.9,3.9c-2,0-3.9-1.6-3.9-3.9S319.9,423.4,322,423.4"/>
	<path fill="#003D76" d="M368.6,424.7c1.6,0,3,1.4,3,3c0,1.6-1.4,3-3,3c-1.6,0-3-1.4-3-3C365.6,426.1,367,424.7,368.6,424.7"/>
</g>
</svg>
